<?xml version="1.0" encoding="UTF-8" standalone="no"?>
<!-- Generator: Adobe Illustrator 13.0.0, SVG Export Plug-In . SVG Version: 6.00 Build 14948)  -->

<svg
   version="1.1"
   id="Layer_1"
   x="0px"
   y="0px"
   width="295"
   height="295"
   viewBox="0 0 378.93436 378.93437"
   xml:space="preserve"
   sodipodi:docname="Java_programming_language_logo.svg"
   inkscape:version="1.2.1 (9c6d41e, 2022-07-14)"
   xmlns:inkscape="http://www.inkscape.org/namespaces/inkscape"
   xmlns:sodipodi="http://sodipodi.sourceforge.net/DTD/sodipodi-0.dtd"
   xmlns="http://www.w3.org/2000/svg"
   xmlns:svg="http://www.w3.org/2000/svg"><defs
   id="defs94" /><sodipodi:namedview
   id="namedview92"
   pagecolor="#ffffff"
   bordercolor="#000000"
   borderopacity="0.25"
   inkscape:showpageshadow="2"
   inkscape:pageopacity="0.0"
   inkscape:pagecheckerboard="0"
   inkscape:deskcolor="#d1d1d1"
   showgrid="false"
   inkscape:zoom="2.0505663"
   inkscape:cx="116.79701"
   inkscape:cy="127.03808"
   inkscape:window-width="1920"
   inkscape:window-height="1009"
   inkscape:window-x="0"
   inkscape:window-y="0"
   inkscape:window-maximized="1"
   inkscape:current-layer="Layer_1" />



<path
   style="fill:#5382a1"
   d="m 136.54287,290.04984 c 0,0 -14.178,8.245 10.09,11.035 29.4,3.354 44.426,2.873 76.825,-3.259 0,0 8.518,5.341 20.414,9.967 -72.63,31.128 -164.376007,-1.803 -107.329,-17.743"
   id="path67" />

<path
   style="fill:#5382a1"
   d="m 127.66787,249.42984 c 0,0 -15.902,11.771 8.384,14.283 31.406,3.24 56.208,3.505 99.125,-4.759 0,0 5.936,6.018 15.27,9.309 -87.814,25.678 -185.623007,2.025 -122.779,-18.833"
   id="path69" />

<path
   style="fill:#f8981d"
   d="m 202.48687,180.52484 c 17.896,20.604 -4.702,39.145 -4.702,39.145 0,0 45.441,-23.458 24.572,-52.833 -19.491,-27.394 -34.438,-41.005 46.479,-87.934003 0,0 -127.013,31.722003 -66.349,101.622003"
   id="path71" />

<path
   style="fill:#5382a1"
   d="m 298.54587,320.09484 c 0,0 10.492,8.645 -11.555,15.333 -41.923,12.7 -174.488,16.535 -211.314007,0.506 -13.238,-5.759 11.587,-13.751 19.396004,-15.428 8.144003,-1.766 12.798003,-1.437 12.798003,-1.437 -14.722007,-10.371 -95.157007,20.364 -40.857007,29.166 148.084007,24.015 269.943007,-10.814 231.532007,-28.14"
   id="path73" />

<path
   style="fill:#5382a1"
   d="m 143.36087,207.34284 c 0,0 -67.431007,16.016 -23.879,21.832 18.389,2.462 55.047,1.905 89.193,-0.956 27.906,-2.354 55.927,-7.359 55.927,-7.359 0,0 -9.84,4.214 -16.959,9.075 -68.475,18.009 -200.756007,9.631 -162.674007,-8.79 32.206007,-15.568 58.392007,-13.802 58.392007,-13.802"
   id="path75" />

<path
   style="fill:#5382a1"
   d="m 264.32387,274.95684 c 69.608,-36.171 37.424,-70.931 14.96,-66.248 -5.506,1.146 -7.961,2.139 -7.961,2.139 0,0 2.044,-3.202 5.948,-4.588 44.441,-15.624 78.619,46.081 -14.346,70.52 0,0.001 1.077,-0.962 1.399,-1.823"
   id="path77" />

<path
   style="fill:#f8981d"
   d="m 222.35687,3.1248373 c 0,0 38.55,38.5629997 -36.563,97.8620027 -60.233,47.568 -13.735,74.69 -0.025,105.678 -35.159,-31.722 -60.961,-59.647 -43.651,-85.637 25.407,-38.151003 95.793,-56.648003 80.239,-117.9030027"
   id="path79" />

<path
   style="fill:#5382a1"
   d="m 150.20087,372.97184 c 66.815,4.277 169.417,-2.373 171.847,-33.988 0,0 -4.671,11.985 -55.219,21.503 -57.028,10.732 -127.364,9.479 -169.081003,2.601 0.001,-0.001 8.540003,7.068 52.453003,9.884"
   id="path81" />









</svg>
